<svg xmlns="http://www.w3.org/2000/svg" version="1.1" xmlns:xlink="http://www.w3.org/1999/xlink" xmlns:svgjs="http://svgjs.dev/svgjs" width="2000" height="1247" viewBox="0 0 2000 1247"><g transform="matrix(1,0,0,1,-1.2121212121212466,0.504858299595071)"><svg viewBox="0 0 396 247" data-background-color="#471aa0" preserveAspectRatio="xMidYMid meet" height="1247" width="2000" xmlns="http://www.w3.org/2000/svg" xmlns:xlink="http://www.w3.org/1999/xlink"><g id="tight-bounds" transform="matrix(1,0,0,1,0.2400000000000091,-0.09999999999999432)"><svg viewBox="0 0 395.52 247.2" height="247.2" width="395.52"><g><svg></svg></g><g><svg viewBox="0 0 395.52 247.2" height="247.2" width="395.52"><g><path d="M55.039 247.2l39.02-67.585 207.402 0 39.02 67.585zM197.76 0l39.02 67.585-78.04 0z" fill="#a437db" fill-rule="nonzero" stroke="none" stroke-width="1" stroke-linecap="butt" stroke-linejoin="miter" stroke-miterlimit="10" stroke-dasharray="" stroke-dashoffset="0" font-family="none" font-weight="none" font-size="none" text-anchor="none" style="mix-blend-mode: normal" data-fill-palette-color="tertiary"></path></g><g transform="matrix(1,0,0,1,2.842170943040401e-14,83.58905087771497)"><svg viewBox="0 0 395.5199999999999 80.02189824457005" height="80.02189824457005" width="395.5199999999999"><g><svg viewBox="0 0 395.5199999999999 80.02189824457005" height="80.02189824457005" width="395.5199999999999"><g><svg viewBox="0 0 395.52000000000004 80.02189824457007" height="80.02189824457005" width="395.5199999999999"><g><svg viewBox="0 0 395.52000000000004 80.02189824457007" height="80.02189824457007" width="395.52000000000004"><g id="textblocktransform"><svg viewBox="0 0 395.52000000000004 80.02189824457007" height="80.02189824457007" width="395.52000000000004" id="textblock"><g><svg viewBox="0 0 395.52000000000004 80.02189824457007" height="80.02189824457007" width="395.52000000000004"><g transform="matrix(1,0,0,1,0,0)"><svg width="395.52000000000004" viewBox="3 -33.5 168.04 34" height="80.02189824457007" data-palette-color="#a437db"><path d="M16.05 0L3 0 3-0.8 7.05-2.8 7.05-30.2 3-32.2 3-33 16.9-33Q22.15-33 25.18-30.83 28.2-28.65 28.2-24.85L28.2-24.85Q28.2-22.05 26.3-19.9 24.4-17.75 21.3-16.6L21.3-16.6 30.75-2.65 34.1-0.8 34.1 0 26.05 0 16.45-15.2 12.3-15.2 12.3-2.85 16.05-0.8 16.05 0ZM15.25-30.25L15.25-30.25 12.3-30.25 12.3-17.85 15.55-17.85Q18.65-17.85 20.68-19.63 22.7-21.4 22.7-24.15L22.7-24.15Q22.7-27 20.73-28.63 18.75-30.25 15.25-30.25ZM53.9 0.5L53.9 0.5Q50.3 0.5 47.22-0.78 44.15-2.05 41.87-4.33 39.6-6.6 38.35-9.7 37.1-12.8 37.1-16.5L37.1-16.5Q37.1-20.2 38.35-23.3 39.6-26.4 41.87-28.68 44.15-30.95 47.22-32.23 50.3-33.5 53.9-33.5L53.9-33.5Q57.5-33.5 60.57-32.23 63.65-30.95 65.92-28.68 68.2-26.4 69.47-23.3 70.75-20.2 70.75-16.5L70.75-16.5Q70.75-12.8 69.47-9.7 68.2-6.6 65.92-4.33 63.65-2.05 60.57-0.78 57.5 0.5 53.9 0.5ZM54.9-2L54.9-2Q57.95-2 60.25-3.6 62.55-5.2 63.85-8.1 65.15-11 65.15-14.95L65.15-14.95Q65.15-19.8 63.55-23.43 61.95-27.05 59.2-29.05 56.45-31.05 53.1-31.05L53.1-31.05Q50.05-31.05 47.7-29.48 45.35-27.9 44.02-25 42.7-22.1 42.7-18.15L42.7-18.15Q42.7-13.3 44.32-9.65 45.95-6 48.72-4 51.5-2 54.9-2ZM94 0.5L94 0.5Q88.84 0.5 85.09-1.6 81.34-3.7 79.3-7.35 77.25-11 77.25-15.65L77.25-15.65Q77.25-19.25 78.65-22.45 80.05-25.65 82.47-28.15 84.9-30.65 88.05-32.08 91.2-33.5 94.75-33.5L94.75-33.5Q97.3-33.5 99.05-33.18 100.8-32.85 102.17-32.33 103.55-31.8 104.95-31.1L104.95-31.1 105.25-22.2 104.34-22.2 100.9-28.7Q99.2-29.9 97.82-30.45 96.45-31 94.75-31L94.75-31Q91.3-31 88.55-29.2 85.8-27.4 84.22-24.23 82.65-21.05 82.65-16.9L82.65-16.9Q82.65-12.25 84.17-8.93 85.7-5.6 88.3-3.85 90.9-2.1 94.05-2.1L94.05-2.1Q96.65-2.1 98.42-2.8 100.2-3.5 101.59-4.45L101.59-4.45 104.95-10.05 105.8-10.05 105.2-2Q103-0.9 100.5-0.2 98 0.5 94 0.5ZM126.44 0L113.09 0 113.09-0.8 117.14-2.8 117.14-30.2 113.09-32.2 113.09-33 126.44-33 126.44-32.2 122.39-30.2 122.39-2.8 126.44-0.8 126.44 0ZM137.89 0L122.39-16.85 136.19-30.5 132.64-32.2 132.64-33 143.44-33 143.44-32.2 140.29-30.95 127.49-18.4 142.89-2.15 146.04-0.8 146.04 0 137.89 0ZM159.99 0.5L159.99 0.5Q156.84 0.5 154.62-0.1 152.39-0.7 150.04-1.85L150.04-1.85 149.54-10.1 150.34-10.1 152.99-4.65Q154.74-3.2 156.44-2.55 158.14-1.9 159.84-1.9L159.84-1.9Q162.74-1.9 164.41-3.4 166.09-4.9 166.09-7.5L166.09-7.5Q166.09-9.55 165.16-10.78 164.24-12 162.41-12.98 160.59-13.95 157.94-15.25L157.94-15.25Q154.39-16.95 152.49-18.82 150.59-20.7 150.59-24.1L150.59-24.1Q150.59-25.9 151.47-27.58 152.34-29.25 153.84-30.58 155.34-31.9 157.19-32.7 159.04-33.5 161.04-33.5L161.04-33.5Q163.39-33.5 165.44-32.95 167.49-32.4 169.49-31.35L169.49-31.35 169.99-23.35 169.19-23.35 166.59-28.7Q164.99-29.95 163.69-30.5 162.39-31.05 160.74-31.05L160.74-31.05Q158.59-31.05 157.16-29.6 155.74-28.15 155.74-25.95L155.74-25.95Q155.74-23.5 157.26-22.1 158.79-20.7 162.19-19.1L162.19-19.1Q165.19-17.65 167.16-16.32 169.14-15 170.09-13.35 171.04-11.7 171.04-9.15L171.04-9.15Q171.04-6.8 170.04-5 169.04-3.2 167.39-1.98 165.74-0.75 163.81-0.13 161.89 0.5 159.99 0.5Z" opacity="1" transform="matrix(1,0,0,1,0,0)" fill="#a437db" class="wordmark-text-0" data-fill-palette-color="primary" id="text-0"></path></svg></g></svg></g></svg></g></svg></g><g></g></svg></g></svg></g></svg></g></svg></g><defs></defs></svg><rect width="395.52" height="247.2" fill="none" stroke="none" visibility="hidden"></rect></g></svg></g></svg>