<svg xmlns="http://www.w3.org/2000/svg" version="1.1" xmlns:xlink="http://www.w3.org/1999/xlink" xmlns:svgjs="http://svgjs.dev/svgjs" width="1000" height="1000" viewBox="0 0 1000 1000"><rect width="1000" height="1000" fill="#ffffff"></rect><g transform="matrix(0.7,0,0,0.7,149.57575757575756,282.1265587044535)"><svg viewBox="0 0 396 247" data-background-color="#471aa0" preserveAspectRatio="xMidYMid meet" height="623" width="1000" xmlns="http://www.w3.org/2000/svg" xmlns:xlink="http://www.w3.org/1999/xlink"><g id="tight-bounds" transform="matrix(1,0,0,1,0.2400000000000091,-0.09999999999999432)"><svg viewBox="0 0 395.52 247.2" height="247.2" width="395.52"><g><svg></svg></g><g><svg viewBox="0 0 395.52 247.2" height="247.2" width="395.52"><g><path xmlns="http://www.w3.org/2000/svg" d="M55.039 247.2l26.403-45.732 7.584 0-22.403 38.804h262.274l-22.403-38.804 7.584 0 26.403 45.732zM197.76 0l26.403 45.732-7.583 0-18.82-32.596-18.82 32.596-7.583 0z" fill="#000000" fill-rule="nonzero" stroke="none" stroke-width="1" stroke-linecap="butt" stroke-linejoin="miter" stroke-miterlimit="10" stroke-dasharray="" stroke-dashoffset="0" font-family="none" font-weight="none" font-size="none" text-anchor="none" style="mix-blend-mode: normal" data-fill-palette-color="tertiary"></path></g><g transform="matrix(1,0,0,1,16.393702702702683,67.97999999999999)"><svg viewBox="0 0 362.7325945945946 111.24" height="111.24" width="362.7325945945946"><g><svg viewBox="0 0 362.7325945945946 111.24" height="111.24" width="362.7325945945946"><g><svg viewBox="0 0 362.7325945945946 111.24" height="111.24" width="362.7325945945946"><g><svg viewBox="0 0 362.7325945945946 111.24" height="111.24" width="362.7325945945946"><g id="textblocktransform"><svg viewBox="0 0 362.7325945945946 111.24" height="111.24" width="362.7325945945946" id="textblock"><g><svg viewBox="0 0 362.7325945945946 111.24" height="111.24" width="362.7325945945946"><g transform="matrix(1,0,0,1,0,0)"><svg width="362.7325945945946" viewBox="3.75 -36.5 120.63999938964844 37" height="111.24" data-palette-color="#a437db"><path d="M16.75-26.15L16.75-23.05Q13.35-22.95 10.78-21.15 8.2-19.35 7.15-16.2L7.15-16.2 7.15 0 3.75 0 3.75-26.05 6.95-26.05 6.95-19.8Q8.3-22.55 10.53-24.25 12.75-25.95 15.25-26.15L15.25-26.15Q15.75-26.2 16.13-26.2 16.5-26.2 16.75-26.15L16.75-26.15ZM45.4-14.65L45.4-14.65Q45.4-10.25 43.77-6.83 42.15-3.4 39.3-1.45 36.45 0.5 32.85 0.5L32.85 0.5Q29.25 0.5 26.42-1.45 23.6-3.4 21.95-6.83 20.3-10.25 20.3-14.65L20.3-14.65Q20.3-19.05 21.95-22.48 23.6-25.9 26.42-27.88 29.25-29.85 32.85-29.85L32.85-29.85Q36.45-29.85 39.3-27.88 42.15-25.9 43.77-22.48 45.4-19.05 45.4-14.65ZM41.95-14.65L41.95-14.65Q41.95-18.2 40.8-20.9 39.65-23.6 37.6-25.13 35.55-26.65 32.85-26.65L32.85-26.65Q30.15-26.65 28.1-25.13 26.05-23.6 24.87-20.9 23.7-18.2 23.7-14.65L23.7-14.65Q23.7-11.1 24.87-8.4 26.05-5.7 28.1-4.2 30.15-2.7 32.85-2.7L32.85-2.7Q35.55-2.7 37.6-4.23 39.65-5.75 40.8-8.43 41.95-11.1 41.95-14.65ZM63.2 0.5L63.2 0.5Q60.35 0.5 57.97-0.58 55.6-1.65 53.82-3.55 52.05-5.45 51.07-7.9 50.1-10.35 50.1-13.1L50.1-13.1Q50.1-16.8 51.75-19.85 53.4-22.9 56.35-24.7 59.3-26.5 63.15-26.5L63.15-26.5Q66.8-26.5 69.59-24.83 72.4-23.15 73.75-20.3L73.75-20.3 70.45-19.25Q69.34-21.25 67.37-22.38 65.4-23.5 63-23.5L63-23.5Q60.4-23.5 58.25-22.15 56.1-20.8 54.82-18.45 53.55-16.1 53.55-13.1L53.55-13.1Q53.55-10.15 54.85-7.75 56.15-5.35 58.3-3.93 60.45-2.5 63.05-2.5L63.05-2.5Q64.75-2.5 66.32-3.1 67.9-3.7 69.07-4.73 70.25-5.75 70.65-6.95L70.65-6.95 74-5.95Q73.3-4.1 71.67-2.63 70.05-1.15 67.87-0.33 65.7 0.5 63.2 0.5ZM101.64 0L97.94 0 88.29-13.35 82.74-8.15 82.74 0 79.34 0 79.34-36.5 82.74-36.5 82.74-11.8 97.49-26 101.24-26 90.59-15.35 101.64 0ZM114.39 0.5L114.39 0.5Q111.19 0.5 108.44-0.55 105.69-1.6 103.69-3.75L103.69-3.75 105.09-6.15Q107.29-4.1 109.52-3.18 111.74-2.25 114.24-2.25L114.24-2.25Q117.29-2.25 119.19-3.48 121.09-4.7 121.09-7L121.09-7Q121.09-8.55 120.17-9.38 119.24-10.2 117.52-10.73 115.79-11.25 113.39-11.85L113.39-11.85Q110.69-12.6 108.87-13.43 107.04-14.25 106.12-15.53 105.19-16.8 105.19-18.85L105.19-18.85Q105.19-21.4 106.47-23.08 107.74-24.75 109.97-25.63 112.19-26.5 114.94-26.5L114.94-26.5Q117.94-26.5 120.24-25.55 122.54-24.6 123.99-22.9L123.99-22.9 122.34-20.6Q120.94-22.2 119.02-22.98 117.09-23.75 114.74-23.75L114.74-23.75Q113.14-23.75 111.69-23.33 110.24-22.9 109.31-21.93 108.39-20.95 108.39-19.25L108.39-19.25Q108.39-17.85 109.09-17.07 109.79-16.3 111.19-15.78 112.59-15.25 114.64-14.65L114.64-14.65Q117.59-13.85 119.79-13.03 121.99-12.2 123.19-10.9 124.39-9.6 124.39-7.25L124.39-7.25Q124.39-3.6 121.64-1.55 118.89 0.5 114.39 0.5Z" opacity="1" transform="matrix(1,0,0,1,0,0)" fill="#000000" class="wordmark-text-0" data-fill-palette-color="primary" id="text-0"></path></svg></g></svg></g></svg></g></svg></g></svg></g></svg></g></svg></g></svg></g><defs></defs></svg><rect width="395.52" height="247.2" fill="none" stroke="none" visibility="hidden"></rect></g></svg></g></svg>